<svg viewBox="0 0 28 28" fill="none" xmlns="http://www.w3.org/2000/svg">
<path d="M14 0C11.2311 0 8.52431 0.821085 6.22202 2.35942C3.91973 3.89776 2.12532 6.08427 1.06569 8.64243C0.00606599 11.2006 -0.271181 14.0155 0.269012 16.7313C0.809205 19.447 2.14258 21.9416 4.10051 23.8995C6.05845 25.8574 8.55301 27.1908 11.2687 27.731C13.9845 28.2712 16.7994 27.9939 19.3576 26.9343C21.9157 25.8747 24.1022 24.0803 25.6406 21.778C27.1789 19.4757 28 16.7689 28 14C28 10.287 26.525 6.72601 23.8995 4.1005C21.274 1.475 17.713 0 14 0V0ZM14 25.052C11.8141 25.052 9.67732 24.4038 7.85982 23.1894C6.04232 21.975 4.62575 20.2489 3.78925 18.2294C2.95274 16.2099 2.73388 13.9877 3.16032 11.8439C3.58677 9.69996 4.63937 7.73068 6.18503 6.18502C7.73068 4.63937 9.69997 3.58676 11.8439 3.16032C13.9877 2.73387 16.2099 2.95274 18.2294 3.78924C20.2489 4.62574 21.975 6.04231 23.1894 7.85981C24.4039 9.67731 25.052 11.8141 25.052 14C25.052 16.9312 23.8876 19.7423 21.815 21.815C19.7423 23.8876 16.9312 25.052 14 25.052Z" fill="#F67D7D"/>
<path d="M10.2447 18.2201V11.0922C9.69079 11.4417 9.07688 11.6927 8.43182 11.8334V10.9344C9.22646 10.6943 9.95285 10.2794 10.5541 9.72223H11.4235V18.2778L10.2447 18.2201Z" fill="#444444"/>
<path d="M17.2767 18.2054V16.07H13.2801V15.0459L17.1739 9.72223H18.3857V15.0895H19.4962L19.3405 16.0708H18.3592V18.2778L17.2767 18.2054ZM17.2767 12.8669V10.8039C16.9302 11.4674 15.2566 13.6893 14.3914 15.0171H17.2767V12.8669Z" fill="#444444"/>
</svg>
