<svg viewBox="0 0 28 28" fill="none" xmlns="http://www.w3.org/2000/svg">
<path d="M14 0C11.2311 0 8.52431 0.821085 6.22202 2.35942C3.91973 3.89776 2.12532 6.08427 1.06569 8.64243C0.00606599 11.2006 -0.271181 14.0155 0.269012 16.7313C0.809205 19.447 2.14258 21.9416 4.10051 23.8995C6.05845 25.8574 8.55301 27.1908 11.2687 27.731C13.9845 28.2712 16.7994 27.9939 19.3576 26.9343C21.9157 25.8747 24.1022 24.0803 25.6406 21.778C27.1789 19.4757 28 16.7689 28 14C28 10.287 26.525 6.72601 23.8995 4.1005C21.274 1.475 17.713 0 14 0V0ZM14 25.052C11.8141 25.052 9.67732 24.4038 7.85982 23.1894C6.04232 21.975 4.62575 20.2489 3.78925 18.2294C2.95274 16.2099 2.73388 13.9877 3.16032 11.8439C3.58677 9.69996 4.63937 7.73068 6.18503 6.18502C7.73068 4.63937 9.69997 3.58676 11.8439 3.16032C13.9877 2.73387 16.2099 2.95274 18.2294 3.78924C20.2489 4.62574 21.975 6.04231 23.1894 7.85981C24.4039 9.67731 25.052 11.8141 25.052 14C25.052 16.9312 23.8876 19.7423 21.815 21.815C19.7423 23.8876 16.9312 25.052 14 25.052Z" fill="#C6A645"/>
<path d="M10.6631 18.2062V11.0768C10.1255 11.4231 9.53204 11.6739 8.909 11.818V10.8629C9.65919 10.6356 10.3502 10.2462 10.9332 9.72221H11.7891V18.2778L10.6631 18.2062Z" fill="#444444"/>
<path d="M13.7573 15.7817C13.7685 15.3312 13.9166 14.8949 14.1817 14.5306C14.4469 14.1663 14.8166 13.8913 15.2418 13.7421C14.8899 13.5945 14.592 13.3422 14.3884 13.0194C14.1849 12.6965 14.0856 12.3189 14.1041 11.9378C14.1041 10.6644 15.0029 9.74541 16.6987 9.74541C17.0117 9.69966 17.3309 9.72176 17.6346 9.8102C17.9384 9.89865 18.2196 10.0514 18.4591 10.258C18.6986 10.4647 18.8909 10.7204 19.023 11.0079C19.155 11.2954 19.2237 11.6079 19.2243 11.9243C19.2427 12.2932 19.1421 12.6582 18.9372 12.9656C18.7324 13.2729 18.4341 13.5063 18.0866 13.6313C18.5105 13.796 18.8723 14.0892 19.1212 14.4699C19.3701 14.8505 19.4936 15.2995 19.4745 15.754C19.4745 17.3216 18.2671 18.2654 16.5466 18.2654C16.1974 18.3 15.8447 18.2619 15.511 18.1534C15.1772 18.0448 14.8696 17.8683 14.6075 17.6349C14.3454 17.4016 14.1345 17.1164 13.9882 16.7974C13.8419 16.4784 13.7632 16.1326 13.7573 15.7817ZM18.3779 15.7817C18.3779 14.7413 17.7121 14.1863 16.6297 14.1863C16.406 14.1555 16.1782 14.1743 15.9626 14.2414C15.7469 14.3085 15.5487 14.4222 15.3819 14.5744C15.215 14.7266 15.0838 14.9137 14.9973 15.1223C14.9108 15.331 14.8713 15.5561 14.8816 15.7817C14.8783 16.0072 14.9229 16.2309 15.0124 16.4379C15.1019 16.6449 15.2343 16.8306 15.4009 16.9827C15.5674 17.1348 15.7643 17.2499 15.9786 17.3203C16.1929 17.3907 16.4197 17.4149 16.644 17.3913C16.8713 17.421 17.1024 17.3995 17.3204 17.3285C17.5384 17.2575 17.7378 17.1387 17.9041 16.9808C18.0703 16.8229 18.1992 16.6299 18.2813 16.4158C18.3634 16.2017 18.3967 15.972 18.3787 15.7435L18.3779 15.7817ZM15.1864 11.9378C15.1864 12.6313 15.6306 13.2111 16.6709 13.2111C17.7113 13.2111 18.0589 12.7392 18.0589 11.976C18.0729 11.7903 18.0467 11.6037 17.9818 11.4291C17.917 11.2546 17.8152 11.0961 17.6833 10.9646C17.5515 10.8331 17.3927 10.7317 17.218 10.6673C17.0432 10.603 16.8566 10.5772 16.6709 10.5918C15.6163 10.6472 15.1864 11.1745 15.1864 11.9378Z" fill="#444444"/>
</svg>
