<svg viewBox="0 0 28 28" fill="none" xmlns="http://www.w3.org/2000/svg">
<path d="M14 0C11.2311 0 8.52431 0.821085 6.22202 2.35942C3.91973 3.89776 2.12532 6.08427 1.06569 8.64243C0.00606599 11.2006 -0.271181 14.0155 0.269012 16.7313C0.809205 19.447 2.14258 21.9416 4.10051 23.8995C6.05845 25.8574 8.55301 27.1908 11.2687 27.731C13.9845 28.2712 16.7994 27.9939 19.3576 26.9343C21.9157 25.8747 24.1022 24.0803 25.6406 21.778C27.1789 19.4757 28 16.7689 28 14C28 10.287 26.525 6.72601 23.8995 4.1005C21.274 1.475 17.713 0 14 0V0ZM14 25.052C11.8141 25.052 9.67732 24.4038 7.85982 23.1894C6.04232 21.975 4.62575 20.2489 3.78925 18.2294C2.95274 16.2099 2.73388 13.9877 3.16032 11.8439C3.58677 9.69996 4.63937 7.73068 6.18503 6.18502C7.73068 4.63937 9.69997 3.58676 11.8439 3.16032C13.9877 2.73387 16.2099 2.95274 18.2294 3.78924C20.2489 4.62574 21.975 6.04231 23.1894 7.85981C24.4039 9.67731 25.052 11.8141 25.052 14C25.052 16.9312 23.8876 19.7423 21.815 21.815C19.7423 23.8876 16.9312 25.052 14 25.052Z" fill="#7F7F7F"/>
<path d="M10.3449 18.2062V11.0768C9.80729 11.4231 9.21386 11.6739 8.59082 11.818V10.8629C9.34101 10.6356 10.0321 10.2462 10.615 9.72221H11.4709V18.2778L10.3449 18.2062Z" fill="#444444"/>
<path d="M13.4391 15.7827C13.4503 15.3321 13.5984 14.8957 13.8636 14.5313C14.1288 14.167 14.4986 13.8919 14.9239 13.7428C14.5731 13.5935 14.2761 13.3408 14.0728 13.0183C13.8695 12.6958 13.7694 12.319 13.7859 11.9381C13.7859 10.6646 14.6849 9.74541 16.3809 9.74541C16.694 9.69966 17.0133 9.72176 17.3171 9.81022C17.6209 9.89868 17.9021 10.0514 18.1417 10.2581C18.3812 10.4648 18.5736 10.7206 18.7056 11.0081C18.8377 11.2957 18.9063 11.6082 18.907 11.9246C18.9254 12.2936 18.8247 12.6587 18.6199 12.9661C18.415 13.2735 18.1167 13.5069 17.7691 13.6319C18.1931 13.7966 18.5549 14.0899 18.8039 14.4706C19.0528 14.8514 19.1764 15.3005 19.1572 15.7549C19.1572 17.3229 17.9496 18.2668 16.2289 18.2668C15.88 18.2992 15.5282 18.2596 15.1953 18.1502C14.8624 18.0409 14.5556 17.8642 14.2939 17.6312C14.0322 17.3982 13.8213 17.1139 13.6742 16.7958C13.5272 16.4778 13.4471 16.1329 13.4391 15.7827ZM18.0747 15.7827C18.0747 14.7421 17.4087 14.187 16.312 14.187C16.0882 14.1562 15.8604 14.1751 15.6447 14.2421C15.4291 14.3092 15.2308 14.4229 15.0639 14.5752C14.8971 14.7274 14.7658 14.9145 14.6793 15.1232C14.5928 15.3319 14.5533 15.557 14.5635 15.7827C14.5603 16.0082 14.6049 16.2319 14.6944 16.439C14.784 16.646 14.9164 16.8318 15.083 16.9839C15.2495 17.136 15.4465 17.2511 15.6608 17.3215C15.8751 17.392 16.1019 17.4162 16.3262 17.3925C16.5542 17.4218 16.7857 17.4001 17.0043 17.3291C17.2228 17.2581 17.4229 17.1395 17.5901 16.9819C17.7573 16.8243 17.8875 16.6315 17.9713 16.4176C18.0551 16.2036 18.0904 15.9737 18.0747 15.7445V15.7827ZM14.8684 11.9381C14.8684 12.6318 15.3127 13.2116 16.3532 13.2116C17.3938 13.2116 17.7413 12.7397 17.7413 11.9763C17.7554 11.7906 17.7292 11.604 17.6643 11.4294C17.5995 11.2548 17.4976 11.0963 17.3658 10.9648C17.2339 10.8333 17.0751 10.7318 16.9003 10.6675C16.7255 10.6031 16.5389 10.5773 16.3532 10.5919C15.2984 10.6474 14.8684 11.1748 14.8684 11.9381Z" fill="#444444"/>
</svg>
