<svg viewBox="0 0 28 28" fill="none" xmlns="http://www.w3.org/2000/svg">
<path d="M14 0C11.2311 0 8.52431 0.821085 6.22202 2.35942C3.91973 3.89776 2.12532 6.08427 1.06569 8.64243C0.00606599 11.2006 -0.271181 14.0155 0.269012 16.7313C0.809205 19.447 2.14258 21.9416 4.10051 23.8995C6.05845 25.8574 8.55301 27.1908 11.2687 27.731C13.9845 28.2712 16.7994 27.9939 19.3576 26.9343C21.9157 25.8747 24.1022 24.0803 25.6406 21.778C27.1789 19.4757 28 16.7689 28 14C28 10.287 26.525 6.72601 23.8995 4.1005C21.274 1.475 17.713 0 14 0V0ZM14 25.052C11.8141 25.052 9.67732 24.4038 7.85982 23.1894C6.04232 21.975 4.62575 20.2489 3.78925 18.2294C2.95274 16.2099 2.73388 13.9877 3.16032 11.8439C3.58677 9.69996 4.63937 7.73068 6.18503 6.18502C7.73068 4.63937 9.69997 3.58676 11.8439 3.16032C13.9877 2.73387 16.2099 2.95274 18.2294 3.78924C20.2489 4.62574 21.975 6.04231 23.1894 7.85981C24.4039 9.67731 25.052 11.8141 25.052 14C25.052 16.9312 23.8876 19.7423 21.815 21.815C19.7423 23.8876 16.9312 25.052 14 25.052Z" fill="#7F7F7F"/>
<path d="M7.79535 9.73937H11.0459C11.397 9.69797 11.7528 9.73169 12.0898 9.83829C12.4268 9.94489 12.7372 10.1219 13.0006 10.3577C13.2639 10.5934 13.4741 10.8825 13.6172 11.2057C13.7604 11.5288 13.8331 11.8788 13.8307 12.2322C13.8353 12.5991 13.7596 12.9626 13.609 13.2973C13.4584 13.6319 13.2365 13.9295 12.9588 14.1694C12.6811 14.4093 12.3543 14.5855 12.0013 14.6859C11.6483 14.7862 11.2777 14.8081 10.9153 14.7502H8.93239V18.2778H7.79535V9.73937ZM8.93239 13.8359H10.9153C12.0956 13.8359 12.6795 13.2528 12.6795 12.2621C12.7009 12.0336 12.6681 11.8032 12.5837 11.5898C12.4993 11.3763 12.3657 11.1858 12.1938 11.0338C12.0219 10.8817 11.8165 10.7724 11.5943 10.7147C11.3721 10.657 11.1395 10.6525 10.9153 10.7017H8.93239V13.8359Z" fill="#444444"/>
<path d="M17.4863 10.6962H14.7213V9.72221H21.3862V10.6962H18.6213V18.2778H17.4863V10.6962Z" fill="#444444"/>
</svg>
