<svg width="24" height="24" viewBox="0 0 24 24" fill="none" xmlns="http://www.w3.org/2000/svg">
<path d="M11.0127 3.5C15.1616 3.50011 18.5254 6.86373 18.5254 11.0127C18.5253 12.9071 17.8212 14.6355 16.6641 15.957L20.291 19.584L20.3545 19.6621C20.4828 19.8562 20.4619 20.1201 20.291 20.291C20.1201 20.4619 19.8562 20.4828 19.6621 20.3545L19.584 20.291L15.957 16.6641C14.6355 17.8212 12.9071 18.5253 11.0127 18.5254C6.86372 18.5254 3.50011 15.1616 3.5 11.0127C3.5 6.86366 6.86366 3.5 11.0127 3.5ZM11.0127 4.5C7.41594 4.5 4.5 7.41595 4.5 11.0127C4.50011 14.6094 7.41601 17.5254 11.0127 17.5254C14.6093 17.5253 17.5253 14.6093 17.5254 11.0127C17.5254 7.41601 14.6094 4.50011 11.0127 4.5Z" fill="#151542"/>
</svg>
